<?xml version="1.0" encoding="utf-8"?>
<svg viewBox="0 0 523.788 514.921" xmlns="http://www.w3.org/2000/svg" xmlns:bx="https://boxy-svg.com">
  <defs>
    <bx:grid x="0" y="0" width="508.015" height="510.189"/>
    <radialGradient gradientUnits="userSpaceOnUse" cx="17.693" cy="-64.659" r="15.538" id="gradient-1" gradientTransform="matrix(1.30197, 0.220572, -0.196727, 1.182842, -17.486641, 89.380379)">
      <stop offset="0" style="stop-color: rgb(255, 255, 255); stop-opacity: 0.37;"/>
      <stop offset="0.106" style="stop-color: rgb(255, 255, 255); stop-opacity: 0.2;"/>
      <stop offset="0.802" style="stop-opacity: 0.61; stop-color: rgb(7, 143, 255);"/>
      <stop offset="1" style="stop-color: rgb(0, 55, 138);"/>
    </radialGradient>
  </defs>
  <g transform="matrix(16.113859, 0, 0, 15.962272, 0.050483, 0)" style="">
    <g>
      <g id="_x39__1_" opacity="0.26" style="">
        <title>sombra</title>
        <path d="M31.79,14.87c-0.56-3.9-10.14-3.51-10.14-3.51s-2.56-8.19-5.63-8.02c-3.06,0.17-6.13,8.36-6.13,8.36 s-8.58-1.11-9.14,2.73c-0.02,0.16-0.03,0.32-0.03,0.48c-0.15,3.52,5.12,6.72,5.67,7.04c-0.28,0.65-1.72,4.05-1.7,6.67 c-0.02,1.77,0.58,3.21,2.59,3.27c5.29,0.17,8.98-3.23,8.98-3.23s5.9,4.74,9.13,3.34c1.04-0.45,1.4-1.65,1.41-3.07 c0.06-2.72-1.23-6.32-1.48-6.99c6.64-4.55,6.48-6.94,6.48-6.94c0-0.01,0-0.02-0.01-0.03C31.79,14.91,31.79,14.87,31.79,14.87z" style="fill-opacity: 0.49;"/>
      </g>
      <g id="_x38__1_" style="">
        <title>branco-acima-da-sombra</title>
        <path fill="#FFFFFF" d="M16.12,0.72c3.02,0,5.54,8.03,5.54,8.03s0.27-0.01,0.71-0.01c2.23,0,8.96,0.27,9.43,3.52 c0,0,0,0.04-0.01,0.11c0,0.01,0,0.02,0.01,0.03c0,0,0.17,2.39-6.48,6.94c0.25,0.66,1.54,4.27,1.48,6.99 c-0.01,1.42-0.36,2.62-1.41,3.07c-0.41,0.18-0.87,0.26-1.36,0.26c-3.29,0-7.77-3.6-7.77-3.6s-3.51,3.24-8.6,3.24 c-0.13,0-0.25,0-0.38-0.01c-2.01-0.06-2.61-1.51-2.59-3.27c-0.02-2.62,1.42-6.03,1.7-6.67c-0.54-0.32-5.82-3.52-5.67-7.04 c0-0.16,0.01-0.32,0.03-0.48c0.35-2.43,3.92-2.88,6.49-2.88c1.49,0,2.65,0.15,2.65,0.15s3.06-8.19,6.13-8.36 C16.05,0.72,16.08,0.72,16.12,0.72 M16.12,0L16.12,0c-0.04,0-0.09,0-0.13,0c-3.06,0.17-5.77,6.33-6.56,8.3 c-0.49-0.04-1.27-0.1-2.17-0.1c-5.54,0-6.97,1.9-7.21,3.5C0.02,11.88,0,12.06,0,12.28c-0.13,3.38,3.82,6.28,5.48,7.35 c-0.52,1.28-1.54,4.1-1.52,6.39C3.92,29.39,6.01,29.96,7.25,30c0.13,0,0.27,0.01,0.4,0.01c4.28,0,7.46-2.13,8.62-3.04 c1.27,0.94,4.86,3.4,7.75,3.4c0.6,0,1.16-0.11,1.64-0.32c1.21-0.52,1.83-1.78,1.84-3.73c0.05-2.39-0.88-5.41-1.33-6.71 c6.19-4.35,6.36-6.8,6.33-7.26c0-0.06,0-0.11,0-0.14l0-0.03l0-0.03c-0.53-3.74-7.27-4.14-10.14-4.14c-0.07,0-0.14,0-0.2,0 c-0.26-0.74-0.78-2.16-1.51-3.6C19.19,1.48,17.67,0,16.12,0L16.12,0z"/>
      </g>
      <g id="_x37__1_" opacity="0.7" style="">
        <title>stroke</title>
        <path d="M6.44,19.36c0,0-6.24-3.57-5.68-7.41s9.14-2.73,9.14-2.73s3.06-8.19,6.13-8.36c3.06-0.17,5.63,8.02,5.63,8.02 s9.58-0.39,10.14,3.51c0,0,0.17,2.4-6.52,6.97c0,0,3.34,8.64,0.11,10.03c-3.23,1.39-9.13-3.34-9.13-3.34s-3.69,3.4-8.98,3.23 C1.98,29.11,6.44,19.36,6.44,19.36z" style="fill-opacity: 0.5;"/>
      </g>
      <path id="_x36__1_" fill="#04B8FF" d="M 6.44 19.22 C 6.44 19.22 0.2 15.65 0.76 11.81 C 1.32 7.97 9.9 9.08 9.9 9.08 C 9.9 9.08 12.96 0.89 16.03 0.72 C 19.09 0.55 21.66 8.74 21.66 8.74 C 21.66 8.74 31.24 8.35 31.8 12.25 C 31.8 12.25 31.97 14.65 25.28 19.22 C 25.28 19.22 28.62 27.86 25.39 29.25 C 22.16 30.64 16.26 25.91 16.26 25.91 C 16.26 25.91 12.57 29.31 7.28 29.14 C 1.98 28.97 6.44 19.22 6.44 19.22 Z" style="">
        <title>main-color</title>
      </path>
      <path d="M 6.44 19.22 C 6.44 19.22 0.2 15.65 0.76 11.81 C 1.32 7.97 9.9 9.08 9.9 9.08 C 9.9 9.08 12.96 0.89 16.03 0.72 C 19.09 0.55 21.66 8.74 21.66 8.74 C 21.66 8.74 31.24 8.35 31.8 12.25 C 31.8 12.25 31.97 14.65 25.28 19.22 C 25.28 19.22 28.62 27.86 25.39 29.25 C 22.16 30.64 16.26 25.91 16.26 25.91 C 16.26 25.91 12.57 29.31 7.28 29.14 C 1.98 28.97 6.44 19.22 6.44 19.22 Z" style="paint-order: fill; fill: url(#gradient-1); fill-opacity: 0.89;">
        <title>gradiente</title>
      </path>
      <g id="_x34__1_" opacity="0.33" style="">
        <title>intern-group</title>
        <path fill="#04B8FF" d="M7.7,18.7c0,0-5.44-3.11-4.96-6.46c0.49-3.35,7.97-2.38,7.97-2.38s2.67-7.14,5.35-7.29 c2.67-0.15,4.91,7,4.91,7s8.36-0.34,8.84,3.06c0,0,0.15,2.09-5.69,6.07c0,0,2.92,7.53,0.1,8.75c-2.82,1.21-7.96-2.92-7.96-2.92 s-3.22,2.96-7.83,2.82C3.81,27.2,7.7,18.7,7.7,18.7z" style="fill-opacity: 0.33;">
          <title>small-lighter-blue</title>
        </path>
        <linearGradient id="SVGID_3_" gradientUnits="userSpaceOnUse" x1="16.2565" y1="2.5627" x2="16.2565" y2="27.6677">
          <stop offset="0" style="stop-color:#FFFFFF"/>
          <stop offset="1" style="stop-color:#000000"/>
        </linearGradient>
        <path fill="url(#SVGID_3_)" d="M16.13,2.96c1.92,0,3.87,4.85,4.45,6.72l0.09,0.29l0.3-0.01c0,0,0.23-0.01,0.61-0.01 c3.58,0,7.51,0.71,7.83,2.71c-0.01,0.18-0.29,2.15-5.51,5.72l-0.26,0.18l0.11,0.29c0.77,2,2.33,7.37,0.31,8.24 c-0.29,0.13-0.64,0.19-1.03,0.19c-2.7,0-6.49-3.02-6.53-3.05l-0.26-0.21l-0.25,0.23c-0.03,0.03-3,2.72-7.24,2.72 c-0.11,0-0.21,0-0.32-0.01c-0.72-0.02-1.22-0.27-1.52-0.75c-1.05-1.69,0.46-5.87,1.13-7.34l0.15-0.33l-0.31-0.18 c-0.05-0.03-5.21-3.01-4.76-6.07c0.27-1.89,3.42-2.18,5.27-2.18c1.26,0,2.25,0.13,2.26,0.13l0.31,0.04l0.11-0.29 c0.72-1.92,3.02-6.93,5-7.03C16.09,2.96,16.11,2.96,16.13,2.96 M16.13,2.56c-0.03,0-0.05,0-0.08,0 c-2.67,0.15-5.35,7.29-5.35,7.29S9.7,9.72,8.4,9.72c-2.24,0-5.35,0.39-5.66,2.51C2.25,15.59,7.7,18.7,7.7,18.7 s-3.89,8.5,0.73,8.65c0.11,0,0.22,0.01,0.33,0.01c4.44,0,7.5-2.82,7.5-2.82s3.91,3.14,6.78,3.14c0.42,0,0.82-0.07,1.18-0.22 c2.82-1.21-0.1-8.75-0.1-8.75c5.83-3.98,5.69-6.07,5.69-6.07c-0.4-2.83-6.28-3.07-8.22-3.07c-0.39,0-0.62,0.01-0.62,0.01 S18.77,2.56,16.13,2.56L16.13,2.56z" style="fill-opacity: 0.33;">
          <title>shadow</title>
        </path>
      </g>
      <path id="_x33__1_" opacity="0.7" fill="#FFFFFF" d="M15.88,1.08c0,0-2.08,0.01-4.86,6.43c0,0,4.01-7.51,6.16-5.7 C17.93,2.37,17.34,0.98,15.88,1.08z" style="fill-opacity: 0.78;">
        <title>top</title>
      </path>
      <path id="_x32__1_" opacity="0.5" fill="#FFFFFF" d="M9.63,9.38c0,0-3.72,0.02-6.2,0.81c-1.15,0.37-1.88,1.95-2.13,1.88 C0.85,11.93,1.83,8.41,9.63,9.38z" style="fill-opacity: 0.6;">
        <title>left</title>
      </path>
      <g id="_x35__1_" style="" transform="matrix(1, 0, 0, 1, 0.130022, 0)">
        <title>gradiente</title>
        <linearGradient id="SVGID_1_" gradientUnits="userSpaceOnUse" x1="16.2565" y1="0.7211" x2="16.2565" y2="29.5093" spreadMethod="pad" gradientTransform="matrix(0.99955, -0.030279, 0.018526, 0.623137, -0.277348, 11.53037)">
          <stop offset="0" style="stop-color: rgb(62, 252, 255);"/>
          <stop offset="1" style="stop-color:#000000"/>
        </linearGradient>
        <path d="M6.44,19.22c0,0-6.24-3.57-5.68-7.41c0.56-3.84,9.14-2.73,9.14-2.73s3.06-8.19,6.13-8.36 c3.06-0.17,5.63,8.02,5.63,8.02s9.58-0.39,10.14,3.51c0,0,0.17,2.4-6.52,6.97c0,0,3.34,8.64,0.11,10.03 c-3.23,1.39-9.13-3.34-9.13-3.34s-3.69,3.4-8.98,3.23C1.98,28.97,6.44,19.22,6.44,19.22z" style="paint-order: stroke markers; fill-opacity: 0.15;" fill="url(#SVGID_1_)"/>
        <linearGradient id="SVGID_2_" gradientUnits="userSpaceOnUse" x1="0.7203" y1="15.1152" x2="31.7927" y2="15.1152" spreadMethod="pad" gradientTransform="matrix(0.976238, -0.000515, 0.000516, 1, 0.792383, 0.296812)">
          <stop offset="0" style="stop-color:#FFFFFF"/>
          <stop offset="1" style="stop-color: rgb(0, 0, 0);"/>
        </linearGradient>
        <path d="M16.12,1.11c2.24,0,4.49,5.6,5.16,7.75l0.09,0.29l0.3-0.01c0,0,0.27-0.01,0.7-0.01 c4.13,0,8.67,0.83,9.04,3.16c-0.01,0.19-0.29,2.47-6.35,6.61l-0.26,0.18l0.11,0.29c0.89,2.3,2.69,8.51,0.32,9.53 c-0.35,0.15-0.75,0.22-1.2,0.22c-3.11,0-7.48-3.48-7.53-3.51l-0.26-0.21l-0.25,0.23c-0.03,0.03-3.47,3.13-8.34,3.13 c-0.12,0-0.24,0-0.37-0.01c-0.85-0.03-1.43-0.32-1.79-0.89c-1.22-1.96,0.52-6.78,1.3-8.47l0.15-0.33l-0.31-0.18 c-0.06-0.03-6-3.47-5.49-7.01c0.32-2.21,3.96-2.54,6.1-2.54c1.44,0,2.58,0.15,2.6,0.15l0.31,0.04l0.11-0.29 c0.83-2.21,3.48-7.98,5.78-8.1C16.07,1.11,16.09,1.11,16.12,1.11 M16.12,0.72c-0.03,0-0.06,0-0.09,0 c-3.06,0.17-6.13,8.36-6.13,8.36S8.74,8.93,7.25,8.93c-2.57,0-6.14,0.45-6.49,2.88c-0.56,3.84,5.68,7.41,5.68,7.41 s-4.46,9.75,0.84,9.92c0.13,0,0.25,0.01,0.38,0.01c5.09,0,8.6-3.24,8.6-3.24s4.48,3.6,7.77,3.6c0.48,0,0.94-0.08,1.36-0.26 c3.23-1.39-0.11-10.03-0.11-10.03c6.69-4.57,6.52-6.97,6.52-6.97c-0.46-3.25-7.2-3.52-9.43-3.52c-0.45,0-0.71,0.01-0.71,0.01 S19.14,0.72,16.12,0.72L16.12,0.72z" style="paint-order: stroke markers; fill-opacity: 0.15;" fill="url(#SVGID_2_)"/>
      </g>
    </g>
  </g>
</svg>