<?xml version="1.0" encoding="utf-8"?>
<!-- Generator: Adobe Illustrator 25.2.3, SVG Export Plug-In . SVG Version: 6.00 Build 0)  -->
<!DOCTYPE svg PUBLIC "-//W3C//DTD SVG 1.1//EN" "http://www.w3.org/Graphics/SVG/1.1/DTD/svg11.dtd" [
	<!ENTITY ns_extend "http://ns.adobe.com/Extensibility/1.0/">
	<!ENTITY ns_ai "http://ns.adobe.com/AdobeIllustrator/10.0/">
	<!ENTITY ns_graphs "http://ns.adobe.com/Graphs/1.0/">
	<!ENTITY ns_vars "http://ns.adobe.com/Variables/1.0/">
	<!ENTITY ns_imrep "http://ns.adobe.com/ImageReplacement/1.0/">
	<!ENTITY ns_sfw "http://ns.adobe.com/SaveForWeb/1.0/">
	<!ENTITY ns_custom "http://ns.adobe.com/GenericCustomNamespace/1.0/">
	<!ENTITY ns_adobe_xpath "http://ns.adobe.com/XPath/1.0/">
]>
<svg version="1.1"
	 id="Camada_1" xmlns:x="&ns_extend;" xmlns:i="&ns_ai;" xmlns:graph="&ns_graphs;" xmlns:bx="https://boxy-svg.com"
	 xmlns="http://www.w3.org/2000/svg" xmlns:xlink="http://www.w3.org/1999/xlink" x="0px" y="0px" viewBox="0 0 523.8 514.9"
	 enable-background="new 0 0 523.8 514.9" xml:space="preserve">
<metadata>
	<sfw  xmlns="&ns_sfw;">
		<slices></slices>
		<sliceSourceBounds  bottomLeftOrigin="true" height="514.9" width="523.8" x="0" y="0"></sliceSourceBounds>
	</sfw>
</metadata>
<defs>
	<bx:grid  height="510.189" width="508.015" x="0" y="0"></bx:grid>
</defs>
<g transform="matrix(16.113859, 0, 0, 15.962272, 0.050483, 0)">
	<g>
		<g id="_x39__1_" opacity="0.26">
			<path fill-opacity="0.49" d="M31.8,14.9c-0.6-3.9-10.1-3.5-10.1-3.5s-2.6-8.2-5.6-8c-3.1,0.2-6.1,8.4-6.1,8.4s-8.6-1.1-9.1,2.7
				c0,0.2,0,0.3,0,0.5c-0.1,3.5,5.1,6.7,5.7,7c-0.3,0.6-1.7,4-1.7,6.7c0,1.8,0.6,3.2,2.6,3.3c5.3,0.2,9-3.2,9-3.2s5.9,4.7,9.1,3.3
				c1-0.5,1.4-1.6,1.4-3.1c0.1-2.7-1.2-6.3-1.5-7c6.6-4.5,6.5-6.9,6.5-6.9C31.8,15,31.8,15,31.8,14.9C31.8,14.9,31.8,14.9,31.8,14.9
				z"/>
		</g>
		<g id="_x38__1_">
			<path fill="#FFFFFF" d="M16.1,0.7c3,0,5.5,8,5.5,8s0.3,0,0.7,0c2.2,0,9,0.3,9.4,3.5c0,0,0,0,0,0.1c0,0,0,0,0,0
				c0,0,0.2,2.4-6.5,6.9c0.2,0.7,1.5,4.3,1.5,7c0,1.4-0.4,2.6-1.4,3.1c-0.4,0.2-0.9,0.3-1.4,0.3c-3.3,0-7.8-3.6-7.8-3.6
				s-3.5,3.2-8.6,3.2c-0.1,0-0.2,0-0.4,0c-2-0.1-2.6-1.5-2.6-3.3c0-2.6,1.4-6,1.7-6.7c-0.5-0.3-5.8-3.5-5.7-7c0-0.2,0-0.3,0-0.5
				c0.4-2.4,3.9-2.9,6.5-2.9c1.5,0,2.7,0.1,2.7,0.1s3.1-8.2,6.1-8.4C16,0.7,16.1,0.7,16.1,0.7 M16.1,0L16.1,0c0,0-0.1,0-0.1,0
				c-3.1,0.2-5.8,6.3-6.6,8.3c-0.5,0-1.3-0.1-2.2-0.1c-5.5,0-7,1.9-7.2,3.5C0,11.9,0,12.1,0,12.3c-0.1,3.4,3.8,6.3,5.5,7.3
				C5,20.9,3.9,23.7,4,26c0,3.4,2.1,3.9,3.3,4c0.1,0,0.3,0,0.4,0c4.3,0,7.5-2.1,8.6-3c1.3,0.9,4.9,3.4,7.8,3.4
				c0.6,0,1.2-0.1,1.6-0.3c1.2-0.5,1.8-1.8,1.8-3.7c0-2.4-0.9-5.4-1.3-6.7c6.2-4.4,6.4-6.8,6.3-7.3c0-0.1,0-0.1,0-0.1v0v0
				C32,8.4,25.2,8,22.4,8c-0.1,0-0.1,0-0.2,0c-0.3-0.7-0.8-2.2-1.5-3.6C19.2,1.5,17.7,0,16.1,0L16.1,0z"/>
		</g>
		<g id="_x37__1_" opacity="0.7">
			<path fill-opacity="0.5" d="M6.4,19.4c0,0-6.2-3.6-5.7-7.4s9.1-2.7,9.1-2.7S13,1,16,0.9c3.1-0.2,5.6,8,5.6,8s9.6-0.4,10.1,3.5
				c0,0,0.2,2.4-6.5,7c0,0,3.3,8.6,0.1,10s-9.1-3.3-9.1-3.3s-3.7,3.4-9,3.2C2,29.1,6.4,19.4,6.4,19.4z"/>
		</g>
		<path id="_x36__1_" fill="#04B8FF" d="M6.4,19.2c0,0-6.2-3.6-5.7-7.4s9.1-2.7,9.1-2.7S13,0.9,16,0.7c3.1-0.2,5.6,8,5.6,8
			s9.6-0.4,10.1,3.5c0,0,0.2,2.4-6.5,7c0,0,3.3,8.6,0.1,10s-9.1-3.3-9.1-3.3s-3.7,3.4-9,3.2C2,29,6.4,19.2,6.4,19.2z"/>
		
			<radialGradient id="SVGID_1_" cx="8.0889" cy="37.6203" r="15.538" gradientTransform="matrix(20.9798 3.5543 3.1402 -18.8808 -269.5696 698.3547)" gradientUnits="userSpaceOnUse">
			<stop  offset="0" style="stop-color:#FFFFFF;stop-opacity:0.37"/>
			<stop  offset="0.106" style="stop-color:#FFFFFF;stop-opacity:0.2"/>
			<stop  offset="0.802" style="stop-color:#078FFF;stop-opacity:0.61"/>
			<stop  offset="1" style="stop-color:#00378A"/>
		</radialGradient>
		<path fill="url(#SVGID_1_)" fill-opacity="0.89" d="M6.4,19.2c0,0-6.2-3.6-5.7-7.4s9.1-2.7,9.1-2.7S13,0.9,16,0.7
			c3.1-0.2,5.6,8,5.6,8s9.6-0.4,10.1,3.5c0,0,0.2,2.4-6.5,7c0,0,3.3,8.6,0.1,10s-9.1-3.3-9.1-3.3s-3.7,3.4-9,3.2
			C2,29,6.4,19.2,6.4,19.2z"/>
		<g id="_x34__1_" opacity="0.33">
			<path fill="#04B8FF" fill-opacity="0.33" d="M7.7,18.7c0,0-5.4-3.1-5-6.5c0.5-3.3,8-2.4,8-2.4s2.7-7.1,5.4-7.3
				c2.7-0.2,4.9,7,4.9,7s8.4-0.3,8.8,3.1c0,0,0.1,2.1-5.7,6.1c0,0,2.9,7.5,0.1,8.8c-2.8,1.2-8-2.9-8-2.9s-3.2,3-7.8,2.8
				C3.8,27.2,7.7,18.7,7.7,18.7z"/>
			
				<linearGradient id="SVGID_2_" gradientUnits="userSpaceOnUse" x1="7.8744" y1="33.4578" x2="7.8744" y2="8.3378" gradientTransform="matrix(16.1139 0 0 -15.9623 -110.6266 536.6218)">
				<stop  offset="0" style="stop-color:#FFFFFF"/>
				<stop  offset="1" style="stop-color:#000000"/>
			</linearGradient>
			<path fill="url(#SVGID_2_)" fill-opacity="0.33" d="M16.1,3C18,3,20,7.8,20.6,9.7l0.1,0.3l0.3,0c0,0,0.2,0,0.6,0
				c3.6,0,7.5,0.7,7.8,2.7c0,0.2-0.3,2.1-5.5,5.7l-0.3,0.2l0.1,0.3c0.8,2,2.3,7.4,0.3,8.2c-0.3,0.1-0.6,0.2-1,0.2
				c-2.7,0-6.5-3-6.5-3L16.2,24L16,24.3c0,0-3,2.7-7.2,2.7c-0.1,0-0.2,0-0.3,0c-0.7,0-1.2-0.3-1.5-0.8c-1-1.7,0.5-5.9,1.1-7.3
				l0.1-0.3l-0.3-0.2c-0.1,0-5.2-3-4.8-6.1c0.3-1.9,3.4-2.2,5.3-2.2c1.3,0,2.2,0.1,2.3,0.1l0.3,0l0.1-0.3C11.8,8.1,14.1,3.1,16.1,3
				C16.1,3,16.1,3,16.1,3 M16.1,2.6C16.1,2.6,16.1,2.6,16.1,2.6c-2.8,0.2-5.4,7.3-5.4,7.3s-1-0.1-2.3-0.1c-2.2,0-5.3,0.4-5.7,2.5
				c-0.5,3.4,5,6.5,5,6.5s-3.9,8.5,0.7,8.6c0.1,0,0.2,0,0.3,0c4.4,0,7.5-2.8,7.5-2.8s3.9,3.1,6.8,3.1c0.4,0,0.8-0.1,1.2-0.2
				c2.8-1.2-0.1-8.8-0.1-8.8c5.8-4,5.7-6.1,5.7-6.1c-0.4-2.8-6.3-3.1-8.2-3.1c-0.4,0-0.6,0-0.6,0S18.8,2.6,16.1,2.6L16.1,2.6z"/>
		</g>
		<path id="_x33__1_" opacity="0.7" fill="#FFFFFF" fill-opacity="0.78" enable-background="new    " d="M15.9,1.1
			c0,0-2.1,0-4.9,6.4c0,0,4-7.5,6.2-5.7C17.9,2.4,17.3,1,15.9,1.1z"/>
		<path id="_x32__1_" opacity="0.5" fill="#FFFFFF" fill-opacity="0.6" enable-background="new    " d="M9.6,9.4c0,0-3.7,0-6.2,0.8
			c-1.2,0.4-1.9,1.9-2.1,1.9C0.9,11.9,1.8,8.4,9.6,9.4z"/>
		<g id="_x35__1_" transform="matrix(1, 0, 0, 1, 0.130022, 0)">
			
				<linearGradient id="SVGID_3_" gradientUnits="userSpaceOnUse" x1="7.7575" y1="33.5431" x2="7.7575" y2="4.7549" gradientTransform="matrix(16.1066 -0.4879 -0.2957 -9.9467 -98.7897 348.9078)">
				<stop  offset="0" style="stop-color:#3EFCFF"/>
				<stop  offset="1" style="stop-color:#000000"/>
			</linearGradient>
			<path fill="url(#SVGID_3_)" fill-opacity="0.15" d="M6.4,19.2c0,0-6.2-3.6-5.7-7.4s9.1-2.7,9.1-2.7S13,0.9,16,0.7
				c3.1-0.2,5.6,8,5.6,8s9.6-0.4,10.1,3.5c0,0,0.2,2.4-6.5,7c0,0,3.3,8.6,0.1,10s-9.1-3.3-9.1-3.3s-3.7,3.4-9,3.2
				C2,29,6.4,19.2,6.4,19.2z"/>
			
				<linearGradient id="SVGID_4_" gradientUnits="userSpaceOnUse" x1="6.7689" y1="32.6894" x2="37.8413" y2="32.6894" gradientTransform="matrix(15.731 -8.298637e-03 -8.236532e-03 -15.9623 -104.7085 536.9782)">
				<stop  offset="0" style="stop-color:#FFFFFF"/>
				<stop  offset="1" style="stop-color:#000000"/>
			</linearGradient>
			<path fill="url(#SVGID_4_)" fill-opacity="0.15" d="M16.1,1.1c2.2,0,4.5,5.6,5.2,7.7l0.1,0.3l0.3,0c0,0,0.3,0,0.7,0
				c4.1,0,8.7,0.8,9,3.2c0,0.2-0.3,2.5-6.4,6.6l-0.3,0.2l0.1,0.3c0.9,2.3,2.7,8.5,0.3,9.5c-0.4,0.1-0.8,0.2-1.2,0.2
				c-3.1,0-7.5-3.5-7.5-3.5l-0.3-0.2L16,25.6c0,0-3.5,3.1-8.3,3.1c-0.1,0-0.2,0-0.4,0c-0.8,0-1.4-0.3-1.8-0.9
				c-1.2-2,0.5-6.8,1.3-8.5l0.2-0.3l-0.3-0.2c-0.1,0-6-3.5-5.5-7c0.3-2.2,4-2.5,6.1-2.5c1.4,0,2.6,0.1,2.6,0.1l0.3,0l0.1-0.3
				C11.1,7,13.7,1.3,16.1,1.1C16.1,1.1,16.1,1.1,16.1,1.1 M16.1,0.7C16.1,0.7,16.1,0.7,16.1,0.7C13,0.9,9.9,9.1,9.9,9.1
				S8.7,8.9,7.2,8.9c-2.6,0-6.1,0.4-6.5,2.9c-0.6,3.8,5.7,7.4,5.7,7.4S2,29,7.3,29.1c0.1,0,0.2,0,0.4,0c5.1,0,8.6-3.2,8.6-3.2
				s4.5,3.6,7.8,3.6c0.5,0,0.9-0.1,1.4-0.3c3.2-1.4-0.1-10-0.1-10c6.7-4.6,6.5-7,6.5-7c-0.5-3.2-7.2-3.5-9.4-3.5c-0.5,0-0.7,0-0.7,0
				S19.1,0.7,16.1,0.7L16.1,0.7z"/>
		</g>
	</g>
</g>
</svg>
